<svg width="1140" height="557" viewBox="0 0 1140 557" fill="none" xmlns="http://www.w3.org/2000/svg">
<rect x="835" y="5" width="300" height="496" rx="45" fill="#475569" stroke="black" stroke-width="10"/>
<circle cx="1022.14" cy="437.712" r="28.7119" fill="#EF4444"/>
<g clip-path="url(#clip0_165_466)">
<path d="M1022.97 438.543C1022.97 439.145 1022.47 439.637 1021.87 439.637C1021.27 439.637 1020.78 439.145 1020.78 438.543V421.043C1020.78 420.439 1021.27 419.949 1021.87 419.949C1022.47 419.949 1022.97 420.439 1022.97 421.043V438.543ZM1008.2 437.449C1008.2 445.003 1014.32 451.121 1021.87 451.121C1029.43 451.121 1035.54 445.003 1035.54 437.449C1035.54 432.158 1032.54 427.571 1028.14 425.296C1027.61 425.019 1027.4 424.358 1027.67 423.822C1027.95 423.285 1028.61 423.075 1029.15 423.353C1034.18 425.988 1037.73 431.311 1037.73 437.449C1037.73 446.206 1030.63 453.309 1021.87 453.309C1013.12 453.309 1006.01 446.206 1006.01 437.449C1006.01 431.311 1009.5 425.988 1014.6 423.353C1015.13 423.075 1015.8 423.285 1016.08 423.822C1016.35 424.358 1016.14 425.019 1015.6 425.296C1011.2 427.571 1008.2 432.158 1008.2 437.449Z" fill="#F1F5F9"/>
</g>
<circle cx="949.712" cy="437.712" r="28.7119" fill="#DBEAFE"/>
<path d="M965.955 428.244C965.311 427.9 964.535 427.946 963.941 428.375L957.694 432.89C957.253 433.207 957.147 433.833 957.455 434.286C957.709 434.739 958.365 434.846 958.809 434.533L965.056 430.021V446.056L958.809 441.551C958.368 441.235 957.763 441.343 957.455 441.798C957.148 442.251 957.254 442.877 957.694 443.194L963.941 447.704C964.275 447.945 964.667 448.067 965.058 448.067C965.365 448.067 965.673 447.991 965.956 447.84C966.599 447.491 967 446.758 967 446.006V430.021C967 429.269 966.599 428.592 965.955 428.244ZM951.444 426.01H935.889C933.741 426.01 932 427.806 932 430.021V446.063C932 448.278 933.741 450.073 935.889 450.073H951.444C953.592 450.073 955.333 448.278 955.333 446.063V430.021C955.333 427.806 953.589 426.01 951.444 426.01ZM953.389 446.063C953.389 447.168 952.516 448.068 951.444 448.068H935.889C934.817 448.068 933.944 447.168 933.944 446.063V430.021C933.944 428.916 934.817 428.016 935.889 428.016H951.444C952.516 428.016 953.389 428.916 953.389 430.021V446.063Z" fill="#0F172A"/>
<rect x="935" y="27" width="100" height="20" rx="10" fill="#1F2937"/>
<rect y="52" width="875" height="505" rx="30" fill="#0F172A"/>
<circle cx="514.712" cy="493.712" r="28.7119" fill="#EF4444"/>
<g clip-path="url(#clip1_165_466)">
<path d="M515.543 494.543C515.543 495.145 515.051 495.637 514.449 495.637C513.848 495.637 513.355 495.145 513.355 494.543V477.043C513.355 476.439 513.848 475.949 514.449 475.949C515.051 475.949 515.543 476.439 515.543 477.043V494.543ZM500.777 493.449C500.777 501.003 506.895 507.121 514.449 507.121C522.003 507.121 528.121 501.003 528.121 493.449C528.121 488.158 525.12 483.571 520.718 481.296C520.185 481.019 519.973 480.358 520.246 479.822C520.526 479.285 521.189 479.075 521.723 479.353C526.761 481.988 530.309 487.311 530.309 493.449C530.309 502.206 523.206 509.309 514.449 509.309C505.692 509.309 498.59 502.206 498.59 493.449C498.59 487.311 502.078 481.988 507.176 479.353C507.709 479.075 508.372 479.285 508.652 479.822C508.926 480.358 508.714 481.019 508.181 481.296C503.781 483.571 500.777 488.158 500.777 493.449Z" fill="#F1F5F9"/>
</g>
<circle cx="437.712" cy="493.712" r="28.7119" fill="#DBEAFE"/>
<path d="M453.955 484.244C453.311 483.9 452.535 483.946 451.941 484.375L445.694 488.89C445.253 489.207 445.147 489.833 445.455 490.286C445.709 490.739 446.365 490.846 446.809 490.533L453.056 486.021V502.056L446.809 497.551C446.368 497.235 445.763 497.343 445.455 497.798C445.148 498.251 445.254 498.877 445.694 499.194L451.941 503.704C452.275 503.945 452.667 504.067 453.058 504.067C453.365 504.067 453.673 503.991 453.956 503.84C454.599 503.491 455 502.758 455 502.006V486.021C455 485.269 454.599 484.592 453.955 484.244ZM439.444 482.01H423.889C421.741 482.01 420 483.806 420 486.021V502.063C420 504.278 421.741 506.073 423.889 506.073H439.444C441.592 506.073 443.333 504.278 443.333 502.063V486.021C443.333 483.806 441.589 482.01 439.444 482.01ZM441.389 502.063C441.389 503.168 440.516 504.068 439.444 504.068H423.889C422.817 504.068 421.944 503.168 421.944 502.063V486.021C421.944 484.916 422.817 484.016 423.889 484.016H439.444C440.516 484.016 441.389 484.916 441.389 486.021V502.063Z" fill="#0F172A"/>
<circle cx="360.712" cy="493.712" r="28.7119" fill="#DBEAFE"/>
<g clip-path="url(#clip2_165_466)">
<path d="M369.201 365.834L369.201 363.327C369.201 362.867 368.807 362.491 368.375 362.491C367.894 362.491 367.549 362.867 367.549 363.327L367.549 365.834C367.549 366.157 367.492 366.464 367.446 366.728L368.983 367.887C369.119 367.26 369.201 366.519 369.201 365.834ZM356.951 357.475C356.951 355.634 358.523 354.132 360.402 354.132C362.28 354.132 363.951 355.634 363.951 357.475V364.168L365.652 365.487L365.701 357.475C365.701 354.706 363.349 352.46 360.5 352.46C357.651 352.46 355.201 354.706 355.201 357.475L355.201 357.614L356.902 358.933V357.475H356.951ZM377.666 377.714L344.417 352.639C344.038 352.354 343.488 352.417 343.188 352.777C342.889 353.092 342.954 353.665 343.332 353.951L376.584 379.031C376.742 379.151 376.934 379.209 377.076 379.209C377.335 379.209 377.591 379.099 377.764 378.891C378.109 378.482 378.044 378.002 377.666 377.714ZM364.826 377.537H361.375V374.141C362.535 374.029 363.622 373.691 364.604 373.19L363.074 372.036C362.136 372.394 361.106 372.576 360.021 372.509C356.3 372.265 353.451 369.157 353.451 365.599V364.816L351.701 363.494V365.539C351.701 369.895 355.071 373.694 359.527 374.128V377.537H356.076C355.594 377.537 355.201 377.913 355.201 378.373C355.201 378.832 355.644 379.209 356.076 379.209H364.777C365.258 379.209 365.602 378.832 365.602 378.42C365.701 377.913 365.356 377.537 364.826 377.537Z" fill="#0F172A"/>
</g>
<rect x="42" y="128" width="529" height="300" rx="20" fill="#F5BD4F"/>
<rect x="611" y="128" width="221" height="130" rx="20" fill="#F5BD4F"/>
<rect x="611" y="298" width="221" height="130" rx="20" fill="#F5BD4F"/>
<path d="M41.97 99L51.09 77.7H55.41L64.53 99H59.55L57.66 94.5H48.84L46.95 99H41.97ZM53.25 83.97L50.55 90.36H55.92L53.25 83.97ZM66.36 99V84H70.89V85.53C71.75 84.29 73.14 83.67 75.06 83.67C76.88 83.67 78.3 84.28 79.32 85.5C80.36 86.72 80.88 88.33 80.88 90.33V99H76.35V91.11C76.35 88.89 75.54 87.78 73.92 87.78C73.02 87.78 72.29 88.11 71.73 88.77C71.17 89.43 70.89 90.41 70.89 91.71V99H66.36ZM96.9469 97.08C95.4069 98.58 93.5469 99.33 91.3669 99.33C89.1869 99.33 87.3269 98.58 85.7869 97.08C84.2469 95.56 83.4769 93.7 83.4769 91.5C83.4769 89.3 84.2469 87.45 85.7869 85.95C87.3269 84.43 89.1869 83.67 91.3669 83.67C93.5469 83.67 95.4069 84.43 96.9469 85.95C98.4869 87.45 99.2569 89.3 99.2569 91.5C99.2569 93.7 98.4869 95.56 96.9469 97.08ZM88.9669 94.11C89.6069 94.77 90.4069 95.1 91.3669 95.1C92.3269 95.1 93.1169 94.77 93.7369 94.11C94.3769 93.45 94.6969 92.58 94.6969 91.5C94.6969 90.42 94.3769 89.55 93.7369 88.89C93.1169 88.23 92.3269 87.9 91.3669 87.9C90.4069 87.9 89.6069 88.23 88.9669 88.89C88.3469 89.55 88.0369 90.42 88.0369 91.5C88.0369 92.58 88.3469 93.45 88.9669 94.11ZM102.044 99V84H106.574V85.53C107.434 84.29 108.824 83.67 110.744 83.67C112.564 83.67 113.984 84.28 115.004 85.5C116.044 86.72 116.564 88.33 116.564 90.33V99H112.034V91.11C112.034 88.89 111.224 87.78 109.604 87.78C108.704 87.78 107.974 88.11 107.414 88.77C106.854 89.43 106.574 90.41 106.574 91.71V99H102.044ZM125.772 105.27H120.882L124.002 98.13L117.762 84H122.712L126.432 93.27L130.122 84H135.102L125.772 105.27ZM155.687 99V91.23C155.687 88.93 154.967 87.78 153.527 87.78C151.807 87.78 150.907 89.03 150.827 91.53V99H146.297V91.23C146.297 88.93 145.577 87.78 144.137 87.78C143.297 87.78 142.637 88.11 142.157 88.77C141.677 89.41 141.437 90.39 141.437 91.71V99H136.907V84H141.437V85.53C142.397 84.29 143.677 83.67 145.277 83.67C147.377 83.67 148.917 84.55 149.897 86.31C150.337 85.45 150.997 84.8 151.877 84.36C152.757 83.9 153.637 83.67 154.517 83.67C156.337 83.67 157.737 84.27 158.717 85.47C159.717 86.67 160.217 88.33 160.217 90.45V99H155.687ZM176.283 97.08C174.743 98.58 172.883 99.33 170.703 99.33C168.523 99.33 166.663 98.58 165.123 97.08C163.583 95.56 162.813 93.7 162.813 91.5C162.813 89.3 163.583 87.45 165.123 85.95C166.663 84.43 168.523 83.67 170.703 83.67C172.883 83.67 174.743 84.43 176.283 85.95C177.823 87.45 178.593 89.3 178.593 91.5C178.593 93.7 177.823 95.56 176.283 97.08ZM168.303 94.11C168.943 94.77 169.743 95.1 170.703 95.1C171.663 95.1 172.453 94.77 173.073 94.11C173.713 93.45 174.033 92.58 174.033 91.5C174.033 90.42 173.713 89.55 173.073 88.89C172.453 88.23 171.663 87.9 170.703 87.9C169.743 87.9 168.943 88.23 168.303 88.89C167.683 89.55 167.373 90.42 167.373 91.5C167.373 92.58 167.683 93.45 168.303 94.11ZM186.87 99.33C185.05 99.33 183.65 98.72 182.67 97.5C181.69 96.28 181.2 94.63 181.2 92.55V84H185.73V91.77C185.73 94.07 186.5 95.22 188.04 95.22C189.92 95.22 190.86 93.91 190.86 91.29V84H195.39V99H190.86V97.47C190 98.71 188.67 99.33 186.87 99.33ZM205.164 99.33C203.164 99.33 201.514 98.84 200.214 97.86C198.934 96.86 198.254 95.61 198.174 94.11H202.944C202.984 94.69 203.224 95.14 203.664 95.46C204.104 95.76 204.654 95.91 205.314 95.91C206.434 95.91 206.994 95.59 206.994 94.95C206.994 94.63 206.864 94.39 206.604 94.23C206.364 94.05 205.924 93.87 205.284 93.69L202.254 92.91C199.734 92.25 198.474 90.68 198.474 88.2C198.474 86.86 199.034 85.77 200.154 84.93C201.274 84.09 202.804 83.67 204.744 83.67C206.464 83.67 207.894 84.1 209.034 84.96C210.194 85.8 210.834 86.99 210.954 88.53H206.394C206.214 87.61 205.634 87.15 204.654 87.15C203.634 87.15 203.124 87.47 203.124 88.11C203.124 88.67 203.634 89.06 204.654 89.28L207.384 90C208.884 90.4 209.964 90.98 210.624 91.74C211.284 92.5 211.614 93.49 211.614 94.71C211.614 96.09 211.014 97.21 209.814 98.07C208.614 98.91 207.064 99.33 205.164 99.33Z" fill="#F8FAFC"/>
<defs>
<clipPath id="clip0_165_466">
<rect width="35" height="35" fill="white" transform="translate(1004.37 419.949)"/>
</clipPath>
<clipPath id="clip1_165_466">
<rect width="35" height="35" fill="white" transform="translate(496.949 475.949)"/>
</clipPath>
<clipPath id="clip2_165_466">
<rect width="35" height="26.7486" fill="white" transform="translate(343 352.46)"/>
</clipPath>
</defs>
</svg>
